# xmcd
#
# Track frame offsets: 
#        150
#        15391
#        27086
#        37906
#        49171
#        63284
#        74124
#        85824
#        96461
#        109491
#        124899
#
# Disc length: 1863 seconds
#
# Revision: 1
# Processed by: cddbd v1.5.2PL0 Copyright (c) Steve Scherf et al.
# Submitted via: ExactAudioCopy v1.3
#
DISCID=9507450b
DTITLE=Nitty Gritty Dirt Band, The - Rare Junk (2017 SHM-CD)
DYEAR=1968
DGENRE=Country
TTITLE0=Mournin' Blues
TTITLE1=Collegiana
TTITLE2=Willie The Weeper
TTITLE3=Cornbread And 'Lasses (Sassafrass Tea)
TTITLE4=These Days
TTITLE5=Sadie Green The Vamp Of New Orleans
TTITLE6=Dr. Heckle And Mr. Jibe
TTITLE7=End Of Your Line
TTITLE8=Reason To Believe
TTITLE9=Hesitation Blues (Oh! Baby Must I Hesitate?)
TTITLE10=A Number And A Name
EXTD=ID3G: 2
EXTT0=
EXTT1=
EXTT2=
EXTT3=
EXTT4=
EXTT5=
EXTT6=
EXTT7=
EXTT8=
EXTT9=
EXTT10=
PLAYORDER=
